<svg width="657.9px" height="120.8px" xmlns="http://www.w3.org/2000/svg" viewBox="-78.9375 14.600000000000001 657.875 120.8" style="background: rgba(0, 0, 0, 0)" preserveAspectRatio="xMidYMid"><defs><filter id="editing-offset"><feFlood flood-color="#f00" flood-opacity="0.5" result="c1"></feFlood><feFlood flood-color="#0f0" flood-opacity="0.5" result="c2"></feFlood><feFlood flood-color="#00f" flood-opacity="0.5" result="c3"></feFlood><feComposite operator="in" in="c1" in2="SourceAlpha" result="text-c1"></feComposite><feComposite operator="in" in="c2" in2="SourceAlpha" result="text-c2"></feComposite><feComposite operator="in" in="c3" in2="SourceAlpha" result="text-c3"></feComposite><feOffset in="text-c1" dx="-10" dy="0" result="text1"></feOffset><feOffset in="text-c2" dx="10" dy="0" result="text2"></feOffset><feOffset in="text-c3" dx="0" dy="0" result="text3"></feOffset><feMerge><feMergeNode in="text1"></feMergeNode><feMergeNode in="text2"></feMergeNode><feMergeNode in="text3"></feMergeNode></feMerge></filter></defs><g filter="url(#editing-offset)"><g transform="matrix(1.2,0,0,1.6,-14.9,188.5)"><path d="M 10 -53.9 L -4 -53.9 L 4.2 -96.1 L 18.3 -96.1 L 10 -53.9 Z M 65.7 -52.6 L 65.7 -52.6 L 65.7 -52.6 Q 58 -52.6 58 -58.6 L 58 -58.6 L 58 -58.6 Q 58 -61.2 59.1 -66.3 L 59.1 -66.3 L 59.1 -66.3 Q 60.2 -71.4 60.6 -73.4 L 60.6 -73.4 L 60.6 -73.4 Q 61.5 -78.1 61.5 -79.6 L 61.5 -79.6 L 61.5 -79.6 Q 61.5 -82.9 59.1 -82.9 L 59.1 -82.9 L 59.1 -82.9 Q 57.5 -82.9 56 -80.6 L 56 -80.6 L 56 -80.6 Q 54.4 -78.4 53.7 -74 L 53.7 -74 L 49.7 -53.9 L 37.3 -52.6 L 40.7 -70 L 40.7 -70 Q 41.3 -72.9 41.8 -76.1 L 41.8 -76.1 L 41.8 -76.1 Q 42.3 -79.4 42.3 -79.9 L 42.3 -79.9 L 42.3 -79.9 Q 42.3 -82.9 40.1 -82.9 L 40.1 -82.9 L 40.1 -82.9 Q 38.7 -82.9 37.1 -80.7 L 37.1 -80.7 L 37.1 -80.7 Q 35.5 -78.5 34.6 -74 L 34.6 -74 L 30.7 -53.9 L 18.1 -52.6 L 24.8 -86.5 L 35.2 -87.8 L 34.1 -81.3 L 34.1 -81.3 Q 35.8 -84.8 38.9 -86.3 L 38.9 -86.3 L 38.9 -86.3 Q 41.9 -87.8 46.7 -87.8 L 46.7 -87.8 L 46.7 -87.8 Q 49.5 -87.8 51.3 -86.4 L 51.3 -86.4 L 51.3 -86.4 Q 53.1 -85.1 53.6 -82.9 L 53.6 -82.9 L 53.6 -82.9 Q 54.7 -85.2 57.5 -86.5 L 57.5 -86.5 L 57.5 -86.5 Q 60.3 -87.8 63.7 -87.8 L 63.7 -87.8 L 63.7 -87.8 Q 67.2 -87.8 68.8 -87 L 68.8 -87 L 68.8 -87 Q 70.5 -86.3 71.6 -85.1 L 71.6 -85.1 L 71.6 -85.1 Q 73.3 -82.9 73.3 -78.8 L 73.3 -78.8 L 73.3 -78.8 Q 73.3 -74.7 71.6 -66.3 L 71.6 -66.3 L 71.6 -66.3 Q 70.7 -62.2 70.7 -60.7 L 70.7 -60.7 L 70.7 -60.7 Q 70.7 -59.2 71.5 -58.3 L 71.5 -58.3 L 71.5 -58.3 Q 72.4 -57.4 73.7 -57.3 L 73.7 -57.3 L 73.7 -57.3 Q 73 -55.1 70.8 -53.9 L 70.8 -53.9 L 70.8 -53.9 Q 68.6 -52.6 65.7 -52.6 Z M 81.4 -55.8 L 81.4 -55.8 L 81.4 -55.8 Q 79.9 -57.4 79.2 -60.1 L 79.2 -60.1 L 79.2 -60.1 Q 78.5 -62.7 78.5 -67 L 78.5 -67 L 78.5 -67 Q 78.5 -71.3 80 -75.2 L 80 -75.2 L 80 -75.2 Q 81.5 -79.1 84.2 -81.9 L 84.2 -81.9 L 84.2 -81.9 Q 89.7 -87.8 98.8 -87.8 L 98.8 -87.8 L 98.8 -87.8 Q 102 -87.8 104.4 -86.7 L 104.4 -86.7 L 115.3 -87.8 L 110.6 -62.8 L 110.6 -62.8 Q 110.4 -62.1 110.4 -60.6 L 110.4 -60.6 L 110.4 -60.6 Q 110.4 -59.2 111.3 -58.3 L 111.3 -58.3 L 111.3 -58.3 Q 112.1 -57.4 113.4 -57.3 L 113.4 -57.3 L 113.4 -57.3 Q 112.8 -55.1 110.4 -53.9 L 110.4 -53.9 L 110.4 -53.9 Q 108.1 -52.6 105.5 -52.6 L 105.5 -52.6 L 105.5 -52.6 Q 102.9 -52.6 101.1 -53.6 L 101.1 -53.6 L 101.1 -53.6 Q 99.3 -54.6 98.8 -56.2 L 98.8 -56.2 L 98.8 -56.2 Q 97.8 -54.6 95.6 -53.6 L 95.6 -53.6 L 95.6 -53.6 Q 93.5 -52.6 90.5 -52.6 L 90.5 -52.6 L 90.5 -52.6 Q 87.6 -52.6 85.3 -53.4 L 85.3 -53.4 L 85.3 -53.4 Q 82.9 -54.1 81.4 -55.8 Z M 94.9 -81.8 L 94.9 -81.8 L 94.9 -81.8 Q 94.2 -80.6 93.5 -78.7 L 93.5 -78.7 L 93.5 -78.7 Q 92.9 -76.7 91.8 -71.5 L 91.8 -71.5 L 91.8 -71.5 Q 90.8 -66.3 90.8 -62.6 L 90.8 -62.6 L 90.8 -62.6 Q 90.8 -58.9 91.3 -57.8 L 91.3 -57.8 L 91.3 -57.8 Q 91.9 -56.7 92.9 -56.7 L 92.9 -56.7 L 92.9 -56.7 Q 95 -56.7 96.5 -58.6 L 96.5 -58.6 L 96.5 -58.6 Q 98 -60.6 98.6 -64 L 98.6 -64 L 102 -82.8 L 102 -82.8 Q 100.6 -83.9 99.1 -83.9 L 99.1 -83.9 L 99.1 -83.9 Q 97.5 -83.9 96.6 -83.4 L 96.6 -83.4 L 96.6 -83.4 Q 95.6 -82.9 94.9 -81.8 Z M 123.1 -80.6 L 123.1 -80.6 L 123.1 -80.6 Q 125.3 -83.7 128.6 -85.7 L 128.6 -85.7 L 128.6 -85.7 Q 131.9 -87.8 135.9 -87.8 L 135.9 -87.8 L 135.9 -87.8 Q 139.9 -87.8 141.8 -86.5 L 141.8 -86.5 L 154.4 -87.8 L 150 -63.2 L 150 -63.2 Q 147.8 -50.7 143.1 -45.7 L 143.1 -45.7 L 143.1 -45.7 Q 138.5 -41.1 129.7 -41.1 L 129.7 -41.1 L 129.7 -41.1 Q 123 -41.1 119.1 -43.2 L 119.1 -43.2 L 119.1 -43.2 Q 115.3 -45.3 115.3 -48.8 L 115.3 -48.8 L 115.3 -48.8 Q 115.3 -51.4 117.3 -52.9 L 117.3 -52.9 L 117.3 -52.9 Q 119.2 -54.4 122.3 -54.4 L 122.3 -54.4 L 122.3 -54.4 Q 125 -54.4 127.1 -53.2 L 127.1 -53.2 L 127.1 -53.2 Q 128.3 -52.6 128.8 -51.7 L 128.8 -51.7 L 128.8 -51.7 Q 127.4 -50.4 127.4 -48.3 L 127.4 -48.3 L 127.4 -48.3 Q 127.4 -45.5 129.9 -45.5 L 129.9 -45.5 L 129.9 -45.5 Q 134.2 -45.5 136.7 -55.7 L 136.7 -55.7 L 136.7 -55.7 Q 137.4 -58.4 137.9 -61.2 L 137.9 -61.2 L 137.9 -61.2 Q 135.1 -57.6 128.5 -57.6 L 128.5 -57.6 L 128.5 -57.6 Q 124 -57.6 121.4 -59.8 L 121.4 -59.8 L 121.4 -59.8 Q 118.7 -62 118.7 -67.1 L 118.7 -67.1 L 118.7 -67.1 Q 118.7 -70.3 119.8 -73.9 L 119.8 -73.9 L 119.8 -73.9 Q 120.9 -77.5 123.1 -80.6 Z M 131.4 -66.9 L 131.4 -66.9 L 131.4 -66.9 Q 131.4 -62.6 133.6 -62.6 L 133.6 -62.6 L 133.6 -62.6 Q 135.2 -62.6 136.7 -64.2 L 136.7 -64.2 L 136.7 -64.2 Q 137.8 -65.6 138.3 -67.6 L 138.3 -67.6 L 141.5 -84 L 141.5 -84 Q 141.2 -84.1 140.9 -84.2 L 140.9 -84.2 L 140.9 -84.2 Q 140.2 -84.5 139.4 -84.5 L 139.4 -84.5 L 139.4 -84.5 Q 135.5 -84.5 133.2 -78.1 L 133.2 -78.1 L 133.2 -78.1 Q 131.4 -73.1 131.4 -66.9 Z M 182.8 -64.7 L 182.8 -64.7 L 182.8 -64.7 Q 184.4 -63.6 184.4 -61.2 L 184.4 -61.2 L 184.4 -61.2 Q 184.4 -58.8 183.2 -57.3 L 183.2 -57.3 L 183.2 -57.3 Q 182 -55.7 180 -54.7 L 180 -54.7 L 180 -54.7 Q 175.9 -52.6 171.5 -52.6 L 171.5 -52.6 L 171.5 -52.6 Q 167.1 -52.6 164.5 -53.5 L 164.5 -53.5 L 164.5 -53.5 Q 161.9 -54.5 160.1 -56.3 L 160.1 -56.3 L 160.1 -56.3 Q 156.8 -59.7 156.8 -65.9 L 156.8 -65.9 L 156.8 -65.9 Q 156.8 -75.6 162 -81.4 L 162 -81.4 L 162 -81.4 Q 167.6 -87.8 177.4 -87.8 L 177.4 -87.8 L 177.4 -87.8 Q 183.5 -87.8 186.5 -85.2 L 186.5 -85.2 L 186.5 -85.2 Q 188.8 -83.3 188.8 -80.2 L 188.8 -80.2 L 188.8 -80.2 Q 188.8 -68.9 169.3 -68.9 L 169.3 -68.9 L 169.3 -68.9 Q 169 -67.2 169 -65.8 L 169 -65.8 L 169 -65.8 Q 169 -62.9 170.4 -61.8 L 170.4 -61.8 L 170.4 -61.8 Q 171.7 -60.6 174.1 -60.6 L 174.1 -60.6 L 174.1 -60.6 Q 176.5 -60.6 179.1 -61.8 L 179.1 -61.8 L 179.1 -61.8 Q 181.7 -62.9 182.8 -64.7 Z M 169.7 -71.7 L 169.7 -71.7 L 169.7 -71.7 Q 174.3 -71.7 176.9 -74.5 L 176.9 -74.5 L 176.9 -74.5 Q 179.5 -77.2 179.5 -81.4 L 179.5 -81.4 L 179.5 -81.4 Q 179.5 -82.9 179 -83.7 L 179 -83.7 L 179 -83.7 Q 178.4 -84.5 177.4 -84.5 L 177.4 -84.5 L 177.4 -84.5 Q 176.3 -84.5 175.3 -84.1 L 175.3 -84.1 L 175.3 -84.1 Q 174.4 -83.7 173.5 -82.3 L 173.5 -82.3 L 173.5 -82.3 Q 171.1 -79.1 169.7 -71.7 Z M 210.1 -76.3 L 210.1 -76.3 L 210.1 -76.3 Q 211 -78.7 211 -80.7 L 211 -80.7 L 211 -80.7 Q 211 -84.5 207.9 -84.5 L 207.9 -84.5 L 207.9 -84.5 Q 206.3 -84.5 205 -83.1 L 205 -83.1 L 205 -83.1 Q 203.7 -81.6 203.7 -79.8 L 203.7 -79.8 L 203.7 -79.8 Q 203.7 -78.6 204.7 -77.5 L 204.7 -77.5 L 204.7 -77.5 Q 206.2 -76.1 209.9 -73.8 L 209.9 -73.8 L 209.9 -73.8 Q 213.7 -71.5 215.2 -69.6 L 215.2 -69.6 L 215.2 -69.6 Q 216.6 -67.8 216.6 -65.2 L 216.6 -65.2 L 216.6 -65.2 Q 216.6 -62.6 215.3 -60.2 L 215.3 -60.2 L 215.3 -60.2 Q 214.1 -57.8 211.9 -56.2 L 211.9 -56.2 L 211.9 -56.2 Q 207.1 -52.6 199.4 -52.6 L 199.4 -52.6 L 199.4 -52.6 Q 195.2 -52.6 192 -54.8 L 192 -54.8 L 192 -54.8 Q 188.8 -56.9 188.8 -59.4 L 188.8 -59.4 L 188.8 -59.4 Q 188.8 -61.9 190.6 -63.3 L 190.6 -63.3 L 190.6 -63.3 Q 192.5 -64.8 195.2 -64.8 L 195.2 -64.8 L 195.2 -64.8 Q 197.8 -64.8 199.5 -63.8 L 199.5 -63.8 L 199.5 -63.8 Q 198.7 -61.7 198.7 -60.3 L 198.7 -60.3 L 198.7 -60.3 Q 198.7 -56 202.3 -56 L 202.3 -56 L 202.3 -56 Q 203.8 -56 204.8 -57 L 204.8 -57 L 204.8 -57 Q 205.8 -58 205.8 -59.6 L 205.8 -59.6 L 205.8 -59.6 Q 205.8 -62.9 200.3 -66.3 L 200.3 -66.3 L 200.3 -66.3 Q 195.9 -69.3 194.8 -70.4 L 194.8 -70.4 L 194.8 -70.4 Q 193.1 -72.5 193.1 -75 L 193.1 -75 L 193.1 -75 Q 193.1 -77.6 194.3 -80 L 194.3 -80 L 194.3 -80 Q 195.5 -82.5 197.8 -84.2 L 197.8 -84.2 L 197.8 -84.2 Q 202.4 -87.8 210.6 -87.8 L 210.6 -87.8 L 210.6 -87.8 Q 214.7 -87.8 217.2 -86.1 L 217.2 -86.1 L 217.2 -86.1 Q 219.7 -84.5 219.7 -81.6 L 219.7 -81.6 L 219.7 -81.6 Q 219.7 -78.8 218 -77.2 L 218 -77.2 L 218 -77.2 Q 216.3 -75.6 213.2 -75.6 L 213.2 -75.6 L 213.2 -75.6 Q 211.1 -75.6 210.1 -76.3 Z M 261.1 -74.5 L 274.1 -75.6 L 274.1 -75.6 Q 269.5 -65.5 269.5 -53.8 L 269.5 -53.8 L 269.5 -53.8 Q 267.7 -52.6 265.2 -52.6 L 265.2 -52.6 L 265.2 -52.6 Q 262.7 -52.6 261.1 -53.8 L 261.1 -53.8 L 261.1 -53.8 Q 259.5 -55 259.2 -56.2 L 259.2 -56.2 L 259.2 -56.2 Q 257.6 -54.5 255 -53.5 L 255 -53.5 L 255 -53.5 Q 252.4 -52.6 249.6 -52.6 L 249.6 -52.6 L 249.6 -52.6 Q 246.9 -52.6 244.5 -53.5 L 244.5 -53.5 L 244.5 -53.5 Q 242.1 -54.4 240.2 -56.4 L 240.2 -56.4 L 240.2 -56.4 Q 236.1 -60.7 236.1 -69 L 236.1 -69 L 236.1 -69 Q 236.1 -81.8 243 -89.4 L 243 -89.4 L 243 -89.4 Q 250 -97.4 262.5 -97.4 L 262.5 -97.4 L 262.5 -97.4 Q 271.1 -97.4 274.2 -92.9 L 274.2 -92.9 L 274.2 -92.9 Q 275.2 -91.5 275.2 -89.8 L 275.2 -89.8 L 275.2 -89.8 Q 275.2 -88.1 274.4 -86.7 L 274.4 -86.7 L 274.4 -86.7 Q 273.7 -85.2 272.5 -84.1 L 272.5 -84.1 L 272.5 -84.1 Q 269.8 -81.5 266.4 -81.5 L 266.4 -81.5 L 266.4 -81.5 Q 265 -81.5 263.8 -82 L 263.8 -82 L 263.8 -82 Q 264 -83.9 264 -86.1 L 264 -86.1 L 264 -86.1 Q 264 -88.4 263.9 -89.4 L 263.9 -89.4 L 263.9 -89.4 Q 263.7 -90.4 263.3 -91.2 L 263.3 -91.2 L 263.3 -91.2 Q 262.5 -93 260.7 -93 L 260.7 -93 L 260.7 -93 Q 258.8 -93 256.8 -91 L 256.8 -91 L 256.8 -91 Q 254.8 -89.1 253.2 -85.9 L 253.2 -85.9 L 253.2 -85.9 Q 249.7 -78.7 249.7 -70.1 L 249.7 -70.1 L 249.7 -70.1 Q 249.7 -66.1 251.2 -63.3 L 251.2 -63.3 L 251.2 -63.3 Q 252.9 -60.2 255.8 -60.2 L 255.8 -60.2 L 255.8 -60.2 Q 256.8 -60.2 257.8 -60.7 L 257.8 -60.7 L 257.8 -60.7 Q 258.7 -61.2 259.1 -61.6 L 259.1 -61.6 L 261.1 -74.5 Z M 280 -55.8 L 280 -55.8 L 280 -55.8 Q 278.5 -57.4 277.8 -60.1 L 277.8 -60.1 L 277.8 -60.1 Q 277.1 -62.7 277.1 -67 L 277.1 -67 L 277.1 -67 Q 277.1 -71.3 278.6 -75.2 L 278.6 -75.2 L 278.6 -75.2 Q 280.1 -79.1 282.8 -81.9 L 282.8 -81.9 L 282.8 -81.9 Q 288.3 -87.8 297.4 -87.8 L 297.4 -87.8 L 297.4 -87.8 Q 300.6 -87.8 303 -86.7 L 303 -86.7 L 313.9 -87.8 L 309.2 -62.8 L 309.2 -62.8 Q 309 -62.1 309 -60.6 L 309 -60.6 L 309 -60.6 Q 309 -59.2 309.9 -58.3 L 309.9 -58.3 L 309.9 -58.3 Q 310.7 -57.4 312 -57.3 L 312 -57.3 L 312 -57.3 Q 311.4 -55.1 309 -53.9 L 309 -53.9 L 309 -53.9 Q 306.7 -52.6 304.1 -52.6 L 304.1 -52.6 L 304.1 -52.6 Q 301.5 -52.6 299.7 -53.6 L 299.7 -53.6 L 299.7 -53.6 Q 297.9 -54.6 297.4 -56.2 L 297.4 -56.2 L 297.4 -56.2 Q 296.4 -54.6 294.2 -53.6 L 294.2 -53.6 L 294.2 -53.6 Q 292 -52.6 289.1 -52.6 L 289.1 -52.6 L 289.1 -52.6 Q 286.2 -52.6 283.9 -53.4 L 283.9 -53.4 L 283.9 -53.4 Q 281.5 -54.1 280 -55.8 Z M 293.5 -81.8 L 293.5 -81.8 L 293.5 -81.8 Q 292.8 -80.6 292.1 -78.7 L 292.1 -78.7 L 292.1 -78.7 Q 291.5 -76.7 290.4 -71.5 L 290.4 -71.5 L 290.4 -71.5 Q 289.4 -66.3 289.4 -62.6 L 289.4 -62.6 L 289.4 -62.6 Q 289.4 -58.9 289.9 -57.8 L 289.9 -57.8 L 289.9 -57.8 Q 290.5 -56.7 291.5 -56.7 L 291.5 -56.7 L 291.5 -56.7 Q 293.6 -56.7 295.1 -58.6 L 295.1 -58.6 L 295.1 -58.6 Q 296.6 -60.6 297.2 -64 L 297.2 -64 L 300.6 -82.8 L 300.6 -82.8 Q 299.2 -83.9 297.6 -83.9 L 297.6 -83.9 L 297.6 -83.9 Q 296.1 -83.9 295.2 -83.4 L 295.2 -83.4 L 295.2 -83.4 Q 294.2 -82.9 293.5 -81.8 Z M 332.7 -57.4 L 332.7 -57.4 L 332.7 -57.4 Q 330.7 -52.6 324.4 -52.6 L 324.4 -52.6 L 324.4 -52.6 Q 321.2 -52.6 319.1 -54.8 L 319.1 -54.8 L 319.1 -54.8 Q 317.5 -56.7 317.5 -58.8 L 317.5 -58.8 L 317.5 -58.8 Q 317.5 -63.6 319.7 -74.1 L 319.7 -74.1 L 324.4 -98.7 L 337.4 -99.9 L 331.2 -67.6 L 331.2 -67.6 Q 330.1 -62.8 330.1 -61.2 L 330.1 -61.2 L 330.1 -61.2 Q 330.1 -57.5 332.7 -57.4 Z M 353.4 -57.4 L 353.4 -57.4 L 353.4 -57.4 Q 351.4 -52.6 345.1 -52.6 L 345.1 -52.6 L 345.1 -52.6 Q 341.9 -52.6 339.9 -54.8 L 339.9 -54.8 L 339.9 -54.8 Q 338.2 -56.7 338.2 -58.8 L 338.2 -58.8 L 338.2 -58.8 Q 338.2 -63.6 340.4 -74.1 L 340.4 -74.1 L 345.1 -98.7 L 358.1 -99.9 L 351.9 -67.6 L 351.9 -67.6 Q 350.8 -62.8 350.8 -61.2 L 350.8 -61.2 L 350.8 -61.2 Q 350.8 -57.5 353.4 -57.4 Z M 384.8 -64.7 L 384.8 -64.7 L 384.8 -64.7 Q 386.4 -63.6 386.4 -61.2 L 386.4 -61.2 L 386.4 -61.2 Q 386.4 -58.8 385.2 -57.3 L 385.2 -57.3 L 385.2 -57.3 Q 384 -55.7 382 -54.7 L 382 -54.7 L 382 -54.7 Q 377.9 -52.6 373.5 -52.6 L 373.5 -52.6 L 373.5 -52.6 Q 369 -52.6 366.4 -53.5 L 366.4 -53.5 L 366.4 -53.5 Q 363.9 -54.5 362.1 -56.3 L 362.1 -56.3 L 362.1 -56.3 Q 358.7 -59.7 358.7 -65.9 L 358.7 -65.9 L 358.7 -65.9 Q 358.7 -75.6 364 -81.4 L 364 -81.4 L 364 -81.4 Q 369.6 -87.8 379.4 -87.8 L 379.4 -87.8 L 379.4 -87.8 Q 385.5 -87.8 388.5 -85.2 L 388.5 -85.2 L 388.5 -85.2 Q 390.7 -83.3 390.7 -80.2 L 390.7 -80.2 L 390.7 -80.2 Q 390.7 -68.9 371.3 -68.9 L 371.3 -68.9 L 371.3 -68.9 Q 371 -67.2 371 -65.8 L 371 -65.8 L 371 -65.8 Q 371 -62.9 372.3 -61.8 L 372.3 -61.8 L 372.3 -61.8 Q 373.6 -60.6 376.1 -60.6 L 376.1 -60.6 L 376.1 -60.6 Q 378.5 -60.6 381.1 -61.8 L 381.1 -61.8 L 381.1 -61.8 Q 383.7 -62.9 384.8 -64.7 Z M 371.7 -71.7 L 371.7 -71.7 L 371.7 -71.7 Q 376.3 -71.7 378.9 -74.5 L 378.9 -74.5 L 378.9 -74.5 Q 381.5 -77.2 381.5 -81.4 L 381.5 -81.4 L 381.5 -81.4 Q 381.5 -82.9 381 -83.7 L 381 -83.7 L 381 -83.7 Q 380.4 -84.5 379.3 -84.5 L 379.3 -84.5 L 379.3 -84.5 Q 378.3 -84.5 377.3 -84.1 L 377.3 -84.1 L 377.3 -84.1 Q 376.4 -83.7 375.4 -82.3 L 375.4 -82.3 L 375.4 -82.3 Q 373.1 -79.1 371.7 -71.7 Z M 412.9 -71.8 L 412.9 -71.8 L 412.9 -71.8 Q 415.2 -75.9 415.2 -80.1 L 415.2 -80.1 L 415.2 -80.1 Q 415.2 -82.9 413.3 -82.9 L 413.3 -82.9 L 413.3 -82.9 Q 411.7 -82.9 410.1 -80.2 L 410.1 -80.2 L 410.1 -80.2 Q 408.5 -77.6 408 -74.2 L 408 -74.2 L 404.6 -53.9 L 391.4 -52.6 L 397.9 -86.5 L 408.5 -87.8 L 407.3 -81.3 L 407.3 -81.3 Q 410.4 -87.8 417.5 -87.8 L 417.5 -87.8 L 417.5 -87.8 Q 421.2 -87.8 423.2 -85.9 L 423.2 -85.9 L 423.2 -85.9 Q 425.2 -83.9 425.2 -80 L 425.2 -80 L 425.2 -80 Q 425.2 -76.1 422.6 -73.6 L 422.6 -73.6 L 422.6 -73.6 Q 420 -71.1 415.6 -71.1 L 415.6 -71.1 L 415.6 -71.1 Q 413.7 -71.1 412.9 -71.8 Z M 446.6 -61.1 L 446.6 -61.1 L 446.6 -61.1 Q 443.3 -57.6 437.2 -57.6 L 437.2 -57.6 L 437.2 -57.6 Q 429.6 -57.6 428 -63.2 L 428 -63.2 L 428 -63.2 Q 427.5 -64.9 427.5 -66.7 L 427.5 -66.7 L 427.5 -66.7 Q 427.5 -68.6 427.9 -70.5 L 427.9 -70.5 L 430.9 -86.5 L 443.9 -87.8 L 440.3 -69.2 L 440.3 -69.2 Q 440.2 -68.3 440 -67.4 L 440 -67.4 L 440 -67.4 Q 439.8 -66.5 439.8 -65.6 L 439.8 -65.6 L 439.8 -65.6 Q 439.8 -64.7 440.1 -64.1 L 440.1 -64.1 L 440.1 -64.1 Q 440.5 -63.5 440.9 -63.1 L 440.9 -63.1 L 440.9 -63.1 Q 441.7 -62.6 443.1 -62.6 L 443.1 -62.6 L 443.1 -62.6 Q 444.4 -62.6 445.6 -64.2 L 445.6 -64.2 L 445.6 -64.2 Q 446.8 -65.9 447.4 -68.8 L 447.4 -68.8 L 450.9 -86.5 L 463.5 -87.8 L 458.7 -62.6 L 458.7 -62.6 Q 456.3 -50.3 451.5 -45.5 L 451.5 -45.5 L 451.5 -45.5 Q 449 -43 445.7 -42 L 445.7 -42 L 445.7 -42 Q 442.5 -41 438.4 -41 L 438.4 -41 L 438.4 -41 Q 431.6 -41 427.8 -43.1 L 427.8 -43.1 L 427.8 -43.1 Q 424 -45.2 424 -48.7 L 424 -48.7 L 424 -48.7 Q 424 -51.4 425.9 -52.9 L 425.9 -52.9 L 425.9 -52.9 Q 427.9 -54.4 431 -54.4 L 431 -54.4 L 431 -54.4 Q 433.7 -54.4 435.7 -53.2 L 435.7 -53.2 L 435.7 -53.2 Q 436.9 -52.5 437.5 -51.6 L 437.5 -51.6 L 437.5 -51.6 Q 436 -50.3 436 -48.2 L 436 -48.2 L 436 -48.2 Q 436 -45.4 438.6 -45.4 L 438.6 -45.4 L 438.6 -45.4 Q 442.8 -45.4 445.3 -55.1 L 445.3 -55.1 L 445.3 -55.1 Q 446 -58 446.6 -61.1 Z"></path></g></g><style>text {
  font-size: 64px;
  font-family: Arial Black;
  dominant-baseline: central;
  text-anchor: middle;
}</style></svg>